<svg id="Camada_1" data-name="Camada 1" xmlns="http://www.w3.org/2000/svg" viewBox="0 0 1920 1080"><defs><style>.cls-1{fill:#fff;}</style></defs><title>h</title><path class="cls-1" d="M1163.05,630.33V630h0Z"/><polygon class="cls-1" points="854.92 445.87 854.92 445.41 854.92 445.41 854.92 445.87 854.92 445.87"/><path class="cls-1" d="M0,0V1080H1920V0ZM1163.05,896.57a78,78,0,0,1-30.84-6.32,58.1,58.1,0,0,1-85.36-51.17h0v-.46h0V631.1c-.06-102.16-145.32-125.31-184.64-35a87,87,0,0,0-7.29,35V838.57h0c0,.12,0,.24,0,.36a58.11,58.11,0,1,1-116.21,0c0-.12,0-.24,0-.36h0V241.07a58.11,58.11,0,1,1,116.21,0V445.41h0c140.37-69.88,307.7,29.2,308.13,184.58v.77c0,.13,0,.25,0,.37v109a78.24,78.24,0,0,1,0,156.47Z"/><path class="cls-1" d="M1163.05,839.08h0v-99h0a78,78,0,0,0-30.84,149.68l-.48.25.48.22A58.08,58.08,0,0,0,1163.05,839.08Z"/></svg>